<svg width="24" height="25" viewBox="0 0 24 25" fill="none" xmlns="http://www.w3.org/2000/svg">
<path d="M23.6749 22.2214L19.1959 17.8511C22.5951 13.6777 22.2752 7.53565 18.396 3.71658C16.3565 1.70861 13.6771 0.606201 10.7977 0.606201C7.9183 0.606201 5.19888 1.70861 3.15932 3.71658C1.11976 5.72455 0 8.36246 0 11.2366C0 14.1108 1.11976 16.7487 3.15932 18.7566C5.19888 20.7252 7.87831 21.867 10.7977 21.867C13.2372 21.867 15.6366 21.0402 17.5162 19.5441L21.9553 23.9144C22.1952 24.1506 22.4752 24.2687 22.7951 24.2687C23.115 24.2687 23.435 24.1506 23.6349 23.9144C24.1148 23.4419 24.1148 22.6938 23.6749 22.2214ZM19.1959 11.2366C19.1959 13.4414 18.3161 15.5281 16.7164 17.0636C15.1167 18.5991 13.0372 19.5047 10.7977 19.5047C8.55816 19.5047 6.43862 18.6385 4.87895 17.0636C3.31929 15.4888 2.39948 13.4414 2.39948 11.2366C2.39948 9.03178 3.27929 6.94507 4.87895 5.40957C6.47861 3.87407 8.51817 2.96851 10.7977 2.96851C13.0372 2.96851 15.1567 3.8347 16.7164 5.40957C18.2761 6.98445 19.1959 8.99241 19.1959 11.2366Z" fill="black"/>
</svg>
