<svg width="59" height="59" viewBox="0 0 59 59" fill="none" xmlns="http://www.w3.org/2000/svg">
<g clip-path="url(#clip0_106_654)">
<mask id="mask0_106_654" style="mask-type:luminance" maskUnits="userSpaceOnUse" x="-1" y="0" width="60" height="60">
<path d="M3.91538 55.0849C2.97138 54.1409 2.17067 53.0578 1.54274 51.8694C0.556594 50.0024 -0.00390625 47.8742 -0.00390625 45.6154C-0.00390625 44.9832 -0.00390625 44.3511 -0.00390625 43.7147C-0.00390625 40.7647 -0.00390625 37.8105 -0.00390625 34.8605C-0.00390625 30.6673 -0.00390625 26.4741 -0.00390625 22.2851C-0.00390625 19.6764 -0.00390625 17.0678 -0.00390625 14.4549C-0.00390625 14.1009 -0.00390625 13.7469 -0.00390625 13.3887C-0.00390625 11.4459 0.409094 9.60008 1.15502 7.93122C1.82509 6.42672 2.76909 5.06972 3.91538 3.92344C6.33859 1.50022 9.68474 0.00415039 13.3807 0.00415039C14.0592 0.00415039 14.7335 0.00415039 15.412 0.00415039C20.0477 0.00415039 24.6834 0.00415039 29.3149 0.00415039C33.9422 0.00415039 38.5652 0.00415039 43.1925 0.00415039C43.9975 0.00415039 44.7982 0.00415039 45.6031 0.00415039C49.299 0.00415039 52.6452 1.50444 55.0684 3.92344C56.2189 5.07394 57.1587 6.43094 57.8287 7.93122C58.5747 9.60008 58.9877 11.4459 58.9877 13.3887C58.9877 13.7427 58.9877 14.0967 58.9877 14.4549C58.9877 17.0636 58.9877 19.6722 58.9877 22.2851C58.9877 26.4783 58.9877 30.6715 58.9877 34.8605C58.9877 37.8105 58.9877 40.7647 58.9877 43.7147C58.9877 44.3469 58.9877 44.979 58.9877 45.6154C58.9877 47.8742 58.4272 50.0024 57.441 51.8694C56.8131 53.0578 56.0082 54.1409 55.0684 55.0849C52.6452 57.5081 49.299 59.0042 45.6031 59.0042C44.7982 59.0042 43.9975 59.0042 43.1925 59.0042C38.5652 59.0042 33.9422 59.0042 29.3149 59.0042C24.6792 59.0042 20.0435 59.0042 15.412 59.0042C14.7335 59.0042 14.0592 59.0042 13.3807 59.0042C9.68474 59.0042 6.33859 57.5039 3.91538 55.0849Z" fill="white"/>
</mask>
<g mask="url(#mask0_106_654)">
<rect x="-0.185547" y="-0.168945" width="59.354" height="59.354" fill="white" fill-opacity="0.5"/>
</g>
<path d="M41.567 27.5692L19.3763 15.3297C18.735 14.9755 17.9608 14.996 17.3382 15.3835C16.7146 15.7722 16.3343 16.4698 16.3343 17.2223V41.695C16.3218 42.4594 16.7032 43.1721 17.3351 43.5672C17.6594 43.7642 18.0283 43.8676 18.4035 43.8676C18.7433 43.8676 19.0769 43.7814 19.3762 43.6178L41.5659 31.3846H41.5669C42.2425 31.0132 42.6655 30.2844 42.6655 29.4909C42.6655 28.6975 42.2425 27.9697 41.5669 27.5972L41.567 27.5692Z" fill="#373737"/>
</g>
<defs>
<clipPath id="clip0_106_654">
<rect width="59" height="59" fill="white"/>
</clipPath>
</defs>
</svg>
