<svg width="59" height="59" viewBox="0 0 59 59" fill="none" xmlns="http://www.w3.org/2000/svg">
<g clip-path="url(#clip0_106_643)">
<mask id="mask0_106_643" style="mask-type:luminance" maskUnits="userSpaceOnUse" x="-1" y="0" width="60" height="60">
<path d="M3.91538 55.085C2.97138 54.141 2.17067 53.0579 1.54274 51.8695C0.556594 50.0026 -0.00390625 47.8743 -0.00390625 45.6155C-0.00390625 44.9833 -0.00390625 44.3512 -0.00390625 43.7148C-0.00390625 40.7648 -0.00390625 37.8106 -0.00390625 34.8606C-0.00390625 30.6674 -0.00390625 26.4742 -0.00390625 22.2852C-0.00390625 19.6766 -0.00390625 17.0679 -0.00390625 14.4551C-0.00390625 14.1011 -0.00390625 13.7471 -0.00390625 13.3888C-0.00390625 11.4461 0.409094 9.6002 1.15502 7.93134C1.82509 6.42684 2.76909 5.06984 3.91538 3.92356C6.33859 1.50034 9.68474 0.00427246 13.3807 0.00427246C14.0592 0.00427246 14.7335 0.00427246 15.412 0.00427246C20.0477 0.00427246 24.6834 0.00427246 29.3149 0.00427246C33.9422 0.00427246 38.5652 0.00427246 43.1925 0.00427246C43.9975 0.00427246 44.7982 0.00427246 45.6031 0.00427246C49.299 0.00427246 52.6452 1.50456 55.0684 3.92356C56.2189 5.07406 57.1587 6.43106 57.8287 7.93134C58.5747 9.6002 58.9877 11.4461 58.9877 13.3888C58.9877 13.7428 58.9877 14.0968 58.9877 14.4551C58.9877 17.0637 58.9877 19.6723 58.9877 22.2852C58.9877 26.4784 58.9877 30.6716 58.9877 34.8606C58.9877 37.8106 58.9877 40.7648 58.9877 43.7148C58.9877 44.347 58.9877 44.9791 58.9877 45.6155C58.9877 47.8743 58.4272 50.0026 57.441 51.8695C56.8131 53.0579 56.0082 54.141 55.0684 55.085C52.6452 57.5082 49.299 59.0043 45.6031 59.0043C44.7982 59.0043 43.9975 59.0043 43.1925 59.0043C38.5652 59.0043 33.9422 59.0043 29.3149 59.0043C24.6792 59.0043 20.0435 59.0043 15.412 59.0043C14.7335 59.0043 14.0592 59.0043 13.3807 59.0043C9.68474 59.0043 6.33859 57.504 3.91538 55.085Z" fill="white"/>
</mask>
<g mask="url(#mask0_106_643)">
<rect x="-0.185547" y="-0.168945" width="59.354" height="59.354" fill="white" fill-opacity="0.5"/>
</g>
<path d="M38.6492 7.9187H20.3339C13.4266 7.9187 7.83008 13.5153 7.83008 20.4225V38.7378C7.83008 45.645 13.4266 51.2416 20.3339 51.2416H38.6492C45.5564 51.2416 51.1529 45.645 51.1529 38.7378V20.4225C51.1529 13.5153 45.5564 7.9187 38.6492 7.9187ZM47.162 39.0581C47.162 43.6432 43.445 47.3602 38.8599 47.3602H20.1189C15.5338 47.3602 11.8168 43.6432 11.8168 39.0581V20.3171C11.8168 15.732 15.5338 12.015 20.1189 12.015H38.8599C43.445 12.015 47.162 15.732 47.162 20.3171V39.0581Z" fill="#373737"/>
<path d="M29.4915 18.446C23.2838 18.446 18.252 23.4779 18.252 29.6855C18.252 35.8932 23.2838 40.925 29.4915 40.925C35.6991 40.925 40.731 35.8932 40.731 29.6855C40.731 23.4779 35.6991 18.446 29.4915 18.446ZM29.4915 36.972C25.4668 36.972 22.205 33.7102 22.205 29.6855C22.205 25.6609 25.4668 22.399 29.4915 22.399C33.5161 22.399 36.778 25.6609 36.778 29.6855C36.778 33.7102 33.5161 36.972 29.4915 36.972Z" fill="#373737"/>
<path d="M41.1073 15.399C39.6618 15.399 38.4902 16.5706 38.4902 18.0161C38.4902 19.4616 39.6618 20.6332 41.1073 20.6332C42.5528 20.6332 43.7244 19.4616 43.7244 18.0161C43.7244 16.5706 42.5528 15.399 41.1073 15.399Z" fill="#373737"/>
</g>
<defs>
<clipPath id="clip0_106_643">
<rect width="59" height="59" fill="white"/>
</clipPath>
</defs>
</svg>
