<svg width="59" height="59" viewBox="0 0 59 59" fill="none" xmlns="http://www.w3.org/2000/svg">
<g clip-path="url(#clip0_106_635)">
<path d="M46.2167 59H12.7833C5.723 59 0 53.277 0 46.2167V12.7833C0 5.72355 5.723 0 12.7833 0H46.2167C53.277 0 59 5.72355 59 12.7833V46.2167C59 53.277 53.277 59 46.2167 59Z" fill="white" fill-opacity="0.5"/>
<path d="M50.8862 26.9056C50.8862 17.2935 41.2501 9.47327 29.4047 9.47327C17.561 9.47327 7.92383 17.2935 7.92383 26.9056C7.92383 35.5229 15.566 42.74 25.8888 44.1041C26.5886 44.2554 27.5408 44.5657 27.7817 45.1639C27.998 45.7064 27.9232 46.5575 27.8511 47.106C27.8511 47.106 27.5992 48.622 27.5446 48.9448C27.4506 49.4878 27.113 51.0688 29.4047 50.103C31.6975 49.1366 41.7762 42.8186 46.2831 37.631H46.282C49.3948 34.2172 50.8862 30.7526 50.8862 26.9056Z" fill="#373737"/>
<path d="M25.0404 22.261H23.5337C23.3026 22.261 23.1152 22.4478 23.1152 22.6784V32.0381C23.1152 32.2691 23.3026 32.456 23.5337 32.456H25.0404C25.2715 32.456 25.4588 32.2691 25.4588 32.0381V22.6784C25.4588 22.4478 25.2715 22.261 25.0404 22.261Z" fill="white" fill-opacity="0.5"/>
<path d="M35.4116 22.261H33.9049C33.6739 22.261 33.4865 22.4478 33.4865 22.6784V28.2391L29.197 22.4467C29.1871 22.4314 29.1762 22.4178 29.1642 22.4041C29.1636 22.403 29.1626 22.4019 29.162 22.4014C29.1533 22.3921 29.1451 22.3839 29.1369 22.3757C29.1341 22.373 29.1314 22.3708 29.1287 22.3686C29.1216 22.3621 29.1145 22.3555 29.1063 22.35C29.103 22.3468 29.0992 22.344 29.0954 22.3413C29.0883 22.3364 29.0812 22.3315 29.0741 22.3265C29.0697 22.3238 29.0659 22.3216 29.0615 22.3189C29.0538 22.3145 29.0462 22.3102 29.0391 22.3063C29.0347 22.3047 29.0303 22.302 29.026 22.3003C29.0178 22.2965 29.0101 22.2932 29.0014 22.2899C28.997 22.2883 28.9927 22.2867 28.9883 22.285C28.9801 22.2823 28.9719 22.2796 28.9632 22.2768C28.9588 22.2757 28.9539 22.2746 28.949 22.2736C28.9408 22.2714 28.9326 22.2697 28.9249 22.2681C28.9189 22.2664 28.9129 22.2665 28.9069 22.2654C28.8998 22.2643 28.8927 22.2632 28.885 22.2626C28.8779 22.2621 28.8708 22.2615 28.8632 22.2615C28.8583 22.2615 28.8539 22.261 28.8484 22.261H27.3423C27.1112 22.261 26.9238 22.4478 26.9238 22.6784V32.0381C26.9238 32.2691 27.1112 32.456 27.3423 32.456H28.8484C29.0801 32.456 29.2674 32.2691 29.2674 32.0381V26.4795L33.5619 32.2795C33.5914 32.321 33.628 32.3555 33.6684 32.3828C33.6695 32.3833 33.6711 32.3844 33.6722 32.386C33.681 32.3915 33.6897 32.397 33.6985 32.4013C33.7023 32.4041 33.7061 32.4057 33.7099 32.4079C33.7165 32.4112 33.7236 32.415 33.7301 32.4177C33.7372 32.4205 33.7432 32.4237 33.7503 32.4265C33.7547 32.4281 33.7585 32.4297 33.7629 32.4308C33.7727 32.4347 33.782 32.4374 33.7913 32.4401C33.7935 32.4407 33.7957 32.4412 33.7979 32.4418C33.8317 32.4505 33.8673 32.456 33.9049 32.456H35.4116C35.6427 32.456 35.8295 32.2691 35.8295 32.0381V22.6784C35.8295 22.4478 35.6427 22.261 35.4116 22.261Z" fill="white" fill-opacity="0.5"/>
<path d="M21.4069 30.1124H17.3124V22.679C17.3124 22.4479 17.1255 22.2605 16.8944 22.2605H15.3872C15.1567 22.2605 14.9688 22.4479 14.9688 22.679V32.0376V32.0381C14.9688 32.1506 15.0135 32.2523 15.0862 32.3271C15.0878 32.3293 15.0895 32.3315 15.0917 32.3337C15.0939 32.3358 15.0955 32.3375 15.0977 32.3397C15.1731 32.4118 15.2747 32.456 15.3867 32.456H15.3872H21.4069C21.6374 32.456 21.8242 32.2686 21.8242 32.0376V30.5309C21.8242 30.2998 21.6374 30.1124 21.4069 30.1124Z" fill="white" fill-opacity="0.5"/>
<path d="M43.7325 24.6047C43.9636 24.6047 44.1504 24.4173 44.1504 24.1862V22.6795C44.1504 22.4484 43.9636 22.2605 43.7325 22.2605H37.7134H37.7128C37.5998 22.2605 37.4981 22.3058 37.4222 22.3785C37.4211 22.3801 37.4189 22.3818 37.4178 22.3834C37.4151 22.3856 37.4129 22.3883 37.4107 22.3905C37.3392 22.4654 37.2949 22.567 37.2949 22.679V22.6795V32.0376V32.0381C37.2949 32.1506 37.3397 32.2523 37.4118 32.3271C37.4135 32.3293 37.4157 32.3315 37.4178 32.3337C37.4195 32.3353 37.4217 32.3375 37.4239 32.3391C37.4987 32.4112 37.6003 32.456 37.7128 32.456H37.7134H43.7325C43.9636 32.456 44.1504 32.2686 44.1504 32.0376V30.5309C44.1504 30.2998 43.9636 30.1124 43.7325 30.1124H39.6385V28.5303H43.7325C43.9636 28.5303 44.1504 28.343 44.1504 28.1119V26.6052C44.1504 26.3741 43.9636 26.1862 43.7325 26.1862H39.6385V24.6047H43.7325Z" fill="white" fill-opacity="0.5"/>
</g>
<defs>
<clipPath id="clip0_106_635">
<rect width="59" height="59" fill="white"/>
</clipPath>
</defs>
</svg>
